<?xml version="1.0" standalone="no"?>
<!DOCTYPE svg PUBLIC "-//W3C//DTD SVG 20010904//EN"
 "http://www.w3.org/TR/2001/REC-SVG-20010904/DTD/svg10.dtd">
<svg version="1.0" xmlns="http://www.w3.org/2000/svg"
 width="1080.000000pt" height="1080.000000pt" viewBox="0 0 1080.000000 1080.000000"
 preserveAspectRatio="xMidYMid meet">

<g transform="translate(0.000000,1080.000000) scale(0.100000,-0.100000)"
fill="#000000" stroke="none">
<path d="M3756 8021 c-23 -36 32 -75 123 -87 45 -6 65 -16 128 -66 41 -33 73
-61 71 -63 -2 -2 -28 3 -58 11 -134 37 -268 -27 -205 -96 44 -49 174 -45 273
7 l47 25 65 -69 c36 -38 86 -96 111 -129 l47 -60 -87 23 c-136 35 -193 30
-248 -20 -43 -38 -19 -108 47 -142 71 -37 221 -7 287 57 18 17 34 30 37 27 28
-31 196 -309 196 -325 0 -3 -15 7 -34 24 -40 35 -124 76 -189 92 -68 18 -190
9 -216 -14 -28 -26 -27 -39 12 -82 59 -68 98 -79 292 -81 l170 -1 82 -169 c45
-92 83 -171 83 -174 0 -4 -35 11 -77 32 -170 86 -359 67 -339 -34 14 -71 83
-117 174 -117 42 0 198 28 249 44 17 5 24 -4 46 -56 40 -94 166 -432 163 -435
-2 -2 -34 15 -72 38 -151 92 -289 139 -349 119 -20 -6 -40 -21 -46 -32 -29
-53 28 -144 109 -175 52 -19 175 -24 303 -10 l77 9 32 -97 c18 -53 30 -98 29
-100 -2 -1 -38 6 -79 18 -99 27 -312 29 -413 4 -194 -48 -417 -189 -519 -329
-36 -50 -46 -57 -85 -63 -70 -10 -197 -80 -270 -148 -109 -102 -196 -251 -229
-393 -16 -73 -20 -248 -6 -298 7 -25 2 -40 -24 -83 -44 -73 -58 -138 -51 -237
13 -197 120 -354 286 -421 61 -25 187 -49 203 -39 22 14 -4 29 -68 40 -147 25
-244 85 -312 191 -76 120 -97 282 -51 397 13 33 29 61 35 63 6 2 21 -19 34
-47 43 -91 127 -150 216 -150 89 0 152 52 161 135 19 166 -158 262 -328 178
-33 -17 -62 -26 -65 -21 -3 4 -8 39 -11 78 -17 201 82 443 240 585 62 57 175
120 234 131 l32 6 -6 -49 c-7 -65 20 -129 73 -169 33 -26 46 -29 107 -29 65 0
70 2 98 33 23 26 29 42 29 78 0 88 -56 146 -169 175 l-66 17 86 83 c106 104
229 181 362 228 100 35 105 36 257 36 153 0 193 -6 297 -46 l25 -9 -39 -29
c-118 -86 -145 -192 -70 -278 58 -66 141 -88 214 -58 48 20 71 41 94 87 41 80
16 175 -63 242 -51 44 -49 45 66 76 123 34 202 43 321 37 190 -8 324 -67 465
-205 l65 -64 -60 -19 c-124 -39 -197 -107 -210 -193 -26 -173 189 -254 317
-119 59 62 73 152 38 245 -11 29 -20 54 -20 56 0 8 146 -1 201 -12 156 -33
292 -107 401 -216 62 -63 85 -96 121 -171 44 -90 77 -207 77 -267 l0 -29 -67
23 c-83 29 -163 30 -218 5 -114 -51 -161 -200 -96 -303 52 -81 172 -114 259
-69 74 39 151 145 152 211 1 55 15 53 73 -10 230 -248 291 -707 116 -878 -49
-48 -104 -65 -191 -60 -132 8 -198 43 -520 277 -299 217 -403 284 -563 362
-140 68 -263 110 -377 129 -33 5 -63 12 -66 14 -6 7 34 100 65 149 17 27 30
37 41 34 9 -3 58 -22 109 -41 123 -48 253 -70 369 -63 215 14 333 116 302 261
-11 53 -64 118 -122 149 -36 19 -56 22 -161 22 -98 -1 -132 -5 -185 -24 -98
-34 -193 -94 -269 -172 -38 -38 -72 -69 -77 -69 -16 0 -156 94 -289 194 -77
59 -174 124 -216 146 -179 93 -340 92 -523 -2 -62 -33 -103 -64 -177 -138 -82
-81 -102 -109 -142 -190 -69 -138 -80 -230 -39 -302 15 -26 14 -29 -20 -81
-91 -136 -138 -275 -138 -401 1 -133 41 -237 125 -321 161 -161 401 -193 787
-104 198 45 438 53 438 13 0 -30 41 -134 76 -194 51 -88 160 -198 294 -300
189 -144 260 -231 295 -367 21 -82 19 -207 -5 -284 -18 -60 -15 -90 8 -75 5 3
17 31 28 63 27 85 25 256 -5 342 -45 129 -109 206 -281 336 -128 96 -198 162
-257 237 -50 66 -101 169 -110 222 l-6 37 44 -7 c141 -22 216 -51 385 -150
208 -122 324 -164 454 -164 102 0 166 21 224 71 75 66 91 106 91 224 0 91 -3
105 -29 155 -40 76 -119 149 -208 193 -94 47 -162 54 -278 32 -53 -11 -168
-20 -305 -24 -212 -7 -222 -8 -272 -34 -79 -41 -142 -139 -143 -221 l0 -39
-87 5 c-117 6 -221 -5 -379 -41 -348 -81 -580 -50 -729 97 -90 89 -134 229
-114 366 12 88 61 211 118 298 l44 66 39 -20 c31 -16 57 -21 121 -20 178 1
331 97 344 215 10 87 -45 137 -151 137 -98 0 -184 -52 -288 -174 -34 -39 -65
-72 -69 -74 -14 -6 -31 71 -26 113 22 157 166 355 333 455 186 112 387 107
575 -15 37 -24 124 -86 192 -139 69 -52 155 -111 191 -132 36 -21 65 -41 64
-44 -2 -3 -26 -50 -53 -105 l-50 -100 -117 -2 c-217 -4 -419 -66 -588 -181
-169 -115 -217 -234 -150 -370 33 -66 76 -109 143 -144 32 -17 64 -23 140 -26
84 -4 108 -1 181 22 97 30 214 103 262 163 63 78 92 154 119 313 9 52 21 115
27 139 l11 44 56 -6 c122 -13 324 -86 485 -175 116 -64 211 -128 476 -321 339
-247 460 -301 611 -273 111 20 181 88 220 211 39 124 26 343 -31 505 -41 120
-156 293 -228 345 -26 18 -30 28 -36 91 -11 105 -31 175 -82 278 -104 212
-317 363 -575 408 -52 9 -118 14 -147 12 l-52 -5 -88 86 c-48 47 -116 103
-152 124 -181 105 -398 122 -673 52 l-29 -8 37 74 c21 41 38 75 39 76 1 1 32
-7 69 -17 96 -27 196 -35 243 -20 49 16 73 36 91 78 12 30 12 37 -1 57 -32 49
-132 39 -300 -29 l-85 -34 31 61 c45 90 159 301 168 310 4 5 39 -2 76 -16 108
-39 178 -51 219 -37 72 24 100 103 48 137 -42 28 -192 25 -257 -5 -59 -27 -60
-29 40 129 66 104 79 120 98 115 48 -13 211 -28 261 -24 95 8 164 87 104 119
-68 36 -218 24 -305 -25 -24 -14 -44 -22 -44 -20 0 7 110 150 153 199 l35 40
29 -31 c88 -95 246 -105 285 -19 14 31 -9 69 -57 92 -29 14 -49 15 -125 7 -49
-5 -90 -6 -90 -3 0 3 37 39 83 79 128 115 114 107 141 81 31 -29 117 -61 164
-61 78 0 105 52 49 94 -23 17 -43 21 -108 21 -43 0 -79 1 -79 2 0 1 31 20 68
43 53 31 78 40 115 40 56 0 97 17 97 40 0 10 -9 20 -21 23 -23 6 -94 -16 -119
-36 -8 -8 -46 -32 -85 -54 -38 -23 -99 -65 -135 -94 -36 -28 -70 -56 -76 -60
-6 -5 -3 26 9 76 22 95 17 149 -14 166 -47 25 -128 -67 -114 -130 3 -17 24
-57 45 -89 l38 -60 -30 -28 c-17 -16 -62 -64 -100 -108 -64 -72 -69 -76 -62
-45 5 19 9 77 9 129 0 116 -18 160 -65 160 -90 0 -100 -132 -20 -290 16 -33
30 -65 30 -71 0 -6 -22 -41 -49 -78 -26 -36 -60 -84 -75 -106 l-26 -40 0 86
c0 111 -20 178 -70 230 -45 48 -81 50 -113 8 -42 -58 -6 -177 98 -318 l45 -61
-84 -143 c-47 -78 -88 -151 -92 -162 -6 -13 -11 1 -21 51 -38 194 -168 314
-210 194 -31 -89 26 -189 156 -276 l40 -26 -103 -207 -104 -206 -45 -17 c-35
-13 -49 -14 -61 -5 -8 7 -45 98 -82 202 -36 105 -77 219 -90 254 -13 35 -24
69 -24 76 0 7 35 32 77 55 151 83 227 193 203 295 -11 50 -44 79 -79 70 -85
-21 -189 -172 -217 -312 -4 -18 -9 -33 -13 -33 -3 0 -17 28 -30 63 -13 34 -52
127 -87 206 l-63 144 63 67 c74 79 150 182 172 236 22 52 15 138 -14 166 -70
71 -200 -48 -238 -218 -9 -41 -17 -96 -17 -123 -2 -58 0 -61 -91 112 l-67 128
24 42 c13 23 41 69 61 102 72 118 85 236 31 282 -84 73 -158 -46 -159 -254 -1
-57 -1 -103 -2 -103 0 0 -25 36 -54 81 -29 44 -75 108 -101 142 l-47 61 40 45
c68 78 91 125 85 176 -11 105 -120 167 -155 89 -14 -28 -15 -155 -3 -227 l8
-49 -106 106 c-98 97 -192 178 -283 242 -40 28 -111 43 -122 25z m89 -32 c60
-32 62 -38 9 -28 -53 10 -107 49 -69 49 11 0 38 -9 60 -21z m516 -80 c34 -36
46 -90 29 -127 -6 -15 -30 -51 -53 -80 -50 -65 -53 -61 -63 87 -6 85 -4 104
10 126 22 33 42 32 77 -6z m-308 -125 c26 -9 47 -19 47 -24 0 -16 -87 -43
-157 -48 -76 -5 -123 11 -123 43 0 44 138 62 233 29z m588 -113 c21 -17 24
-28 23 -79 -1 -66 -26 -129 -92 -230 l-41 -63 -7 36 c-11 61 1 236 20 280 19
45 44 75 61 75 7 0 23 -9 36 -19z m-399 -171 c48 -10 97 -24 109 -30 21 -12
21 -12 -7 -41 -60 -63 -206 -89 -272 -49 -36 22 -58 60 -49 84 9 24 68 56 102
56 17 0 69 -9 117 -20z m1878 -45 c8 -10 11 -32 7 -63 -9 -76 -28 -152 -37
-152 -15 0 -61 86 -67 124 -5 31 -1 40 30 71 39 39 49 42 67 20z m420 6 c0
-13 -26 -21 -63 -20 l-32 1 35 13 c42 16 60 18 60 6z m-1596 -123 c21 -30 20
-94 -3 -143 -22 -48 -125 -187 -175 -234 -31 -30 -36 -32 -42 -17 -10 26 3
174 20 231 41 136 155 228 200 163z m1501 -32 c68 -29 34 -72 -49 -63 -54 5
-136 40 -136 57 0 21 137 26 185 6z m-568 -53 c12 -29 14 -60 10 -133 -2 -52
-9 -106 -15 -120 -10 -24 -12 -20 -48 55 -58 125 -53 235 13 235 18 0 28 -9
40 -37z m-1517 -44 c63 -14 163 -65 196 -100 l28 -29 -140 0 c-159 0 -200 9
-249 52 -40 35 -45 65 -12 78 30 12 122 12 177 -1z m1890 -114 c42 -22 48 -52
16 -84 -49 -49 -170 -27 -235 43 -14 14 -22 28 -19 32 9 8 97 22 156 23 30 0
66 -6 82 -14z m-631 -67 c42 -43 61 -112 61 -217 0 -116 -9 -126 -54 -65 -89
123 -125 223 -101 281 18 44 52 44 94 1z m509 -159 c32 -12 25 -38 -18 -67
-33 -23 -40 -24 -150 -18 -179 9 -194 20 -88 66 86 37 186 44 256 19z m-940
-81 c7 -7 12 -34 12 -62 0 -99 -61 -175 -202 -251 l-70 -38 7 34 c14 68 54
171 85 219 57 90 133 133 168 98z m-515 -51 c68 -31 131 -73 120 -80 -11 -7
-144 -33 -209 -42 -101 -13 -184 32 -184 101 0 47 20 55 126 51 70 -3 103 -10
147 -30z m690 -136 c42 -46 75 -131 84 -214 l6 -60 -44 30 c-100 69 -158 159
-145 225 14 69 48 75 99 19z m531 -71 c37 -30 1 -93 -61 -106 -43 -9 -243 45
-243 66 0 7 77 43 115 53 36 10 173 1 189 -13z m-1139 -283 c80 -33 219 -109
230 -126 8 -14 -111 -24 -223 -19 -105 4 -148 20 -183 68 -75 103 15 143 176
77z m966 -96 l24 -19 -19 -36 c-21 -40 -74 -66 -135 -66 -49 0 -192 27 -203
38 -13 13 135 75 227 95 46 10 84 6 106 -12z m-512 -361 c80 -58 105 -130 73
-204 -49 -109 -189 -117 -265 -14 -29 39 -26 99 8 143 28 38 112 104 131 105
6 0 30 -14 53 -30z m1001 -222 c30 -70 34 -113 16 -163 -46 -120 -198 -160
-271 -73 -24 28 -27 39 -23 84 7 86 64 142 183 180 65 21 74 18 95 -28z
m-2037 -80 c87 -26 141 -121 100 -176 -44 -60 -159 -43 -203 30 -20 32 -27
108 -14 142 7 19 60 21 117 4z m2065 -393 c118 -35 183 -147 137 -235 -55
-106 -271 -151 -482 -100 -94 22 -243 77 -243 90 0 4 35 41 79 82 150 141 358
208 509 163z m660 -165 c24 -6 63 -20 89 -32 l45 -21 -5 -57 c-6 -70 -34 -126
-86 -173 -77 -69 -162 -73 -232 -10 -74 67 -74 168 2 244 51 51 110 66 187 49z
m-2191 -151 c40 -38 27 -115 -29 -165 -54 -50 -175 -94 -259 -94 -45 0 -105
15 -123 31 -18 16 114 166 187 214 76 50 178 56 224 14z m-907 -91 c52 -27 80
-75 80 -136 0 -37 -6 -50 -34 -78 -30 -30 -40 -34 -85 -34 -88 0 -148 42 -195
136 -32 64 -32 68 0 89 75 49 165 58 234 23z m1670 -114 c0 -8 -4 -34 -10 -57
-5 -23 -18 -91 -30 -152 -27 -142 -64 -218 -137 -285 -101 -92 -231 -144 -363
-145 -73 0 -93 4 -142 28 -32 16 -74 47 -93 70 -42 49 -69 131 -59 181 16 86
110 180 254 255 152 78 313 118 488 120 77 1 92 -2 92 -15z m922 -583 c80 -40
169 -128 200 -198 25 -57 29 -157 9 -217 -18 -52 -77 -115 -128 -138 -23 -10
-71 -21 -105 -24 -128 -12 -258 35 -518 185 -130 75 -205 103 -330 124 l-75
13 2 42 c2 52 47 136 88 167 57 42 91 48 300 51 131 2 222 8 265 18 36 8 101
14 145 13 68 -2 90 -7 147 -36z"/>
</g>
</svg>
